# xmcd
#
# Track frame offsets:
#	150
#	28541
#	54585
#	79354
#	103794
#	134135
#	158524
#	181209
#	205992
#	230050
#	253319
#	283436
#
# Disc length: 4077 seconds
# Revision: 1
# Processed by: cddbd v1.5.2PL0 Copyright (c) Steve Scherf et al.
# Submitted via: dBpowerAMP V12.0
#
DISCID=b70feb0c
DTITLE=Various Artist - The best of Tam Doan CD1
DYEAR=2009
DGENRE=Country
TTITLE0=Tam Doan, Ha Vy and Minh Tuyet - Lien khuc Dan ca
TTITLE1=Tam Doan - May chieu
TTITLE2=Tam Doan and Duy Truong - Lien khuc Gian hon and Dem cuoi
TTITLE3=Tam Doan - Tinh dang ly kho qua
TTITLE4=Tam Doan, Tuong Nguyen and Duy Truong - Lien khuc Buon nhu phuong
TTITLE5=Tam Doan - Som chong
TTITLE6=Tam Doan and Duy Truong - Mai lo hai minh xa nhau
TTITLE7=Tam Doan - Ru lai cau ho
TTITLE8=Tam Doan and Duy Truong - Cay cau dua
TTITLE9=Tam Doan - Trang nhat ky
TTITLE10=Tam Doan - Lien khuc Buon nhu phuong [beat]
TTITLE11=Tam Doan - Mai lo hai minh xa nhau [beat]
EXTD=
EXTT0=
EXTT1=
EXTT2=
EXTT3=
EXTT4=
EXTT5=
EXTT6=
EXTT7=
EXTT8=
EXTT9=
EXTT10=
EXTT11=
PLAYORDER=
